<svg width="900" height="720" viewBox="0 0 900 720" fill="none" xmlns="http://www.w3.org/2000/svg">
<defs>
  <linearGradient id="phone" x1="0" y1="0" x2="1" y2="1">
    <stop stop-color="#3A3F47"/><stop offset=".38" stop-color="#090B0F"/><stop offset=".74" stop-color="#020305"/><stop offset="1" stop-color="#4A5059"/>
  </linearGradient>
  <linearGradient id="sky" x1=".2" y1="0" x2=".8" y2="1">
    <stop stop-color="#B9D4E7"/><stop offset=".52" stop-color="#7FA7C0"/><stop offset="1" stop-color="#D8B39C"/>
  </linearGradient>
  <linearGradient id="sea" x1="0" y1="0" x2="0" y2="1">
    <stop stop-color="#87B1C9"/><stop offset="1" stop-color="#DDEAF1"/>
  </linearGradient>
  <linearGradient id="building" x1="0" y1="0" x2="1" y2="1">
    <stop stop-color="#E8D9CD"/><stop offset=".58" stop-color="#B89984"/><stop offset="1" stop-color="#7D6A5C"/>
  </linearGradient>
  <linearGradient id="glass" x1="0" y1="0" x2="1" y2="1">
    <stop stop-color="white" stop-opacity=".98"/><stop offset="1" stop-color="#F5F8FA" stop-opacity=".92"/>
  </linearGradient>
  <filter id="shadow" x="-40%" y="-40%" width="180%" height="210%">
    <feDropShadow dx="0" dy="28" stdDeviation="23" flood-color="#26384B" flood-opacity=".22"/>
  </filter>
  <filter id="cardShadow" x="-40%" y="-40%" width="180%" height="220%">
    <feDropShadow dx="0" dy="18" stdDeviation="18" flood-color="#42566B" flood-opacity=".15"/>
  </filter>
  <filter id="blur" x="-40%" y="-40%" width="180%" height="180%"><feGaussianBlur stdDeviation="28"/></filter>
</defs>

<ellipse cx="484" cy="353" rx="365" ry="255" fill="#D9EAF5" fill-opacity=".32" filter="url(#blur)"/>
<path d="M90 435C250 393 361 391 491 417C620 443 731 389 839 333" stroke="#7896AC" stroke-opacity=".24" stroke-width="3.5" stroke-linecap="round"/>
<path d="M98 462C258 428 366 426 495 451C623 475 732 425 844 371" stroke="#A0B5C4" stroke-opacity=".20" stroke-width="2.6" stroke-linecap="round"/>
<path d="M502 418L555 177L616 419M555 177V96M555 183L490 410M555 183L609 410M555 183L452 419M555 183L654 403" stroke="#728EA3" stroke-opacity=".26" stroke-width="2.6" stroke-linecap="round"/>

<!-- Left phone -->
<g transform="translate(162 54) rotate(-5 210 300)" filter="url(#shadow)">
  <rect x="24" y="8" width="356" height="654" rx="62" fill="url(#phone)"/>
  <rect x="33" y="18" width="338" height="636" rx="52" fill="#F7F8FA"/>
  <rect x="142" y="27" width="124" height="29" rx="15" fill="#080A0D"/>
  <circle cx="247" cy="41.5" r="3.3" fill="#16222D"/>
  <text x="59" y="63" fill="#11151D" font-family="Arial, sans-serif" font-weight="700" font-size="14">9:41</text>

  <g transform="translate(55 79)">
    <rect width="36" height="36" rx="11" fill="#F21D2F"/>
    <rect x="8" y="17" width="4.6" height="12" rx="1.5" fill="white"/>
    <rect x="15.7" y="11" width="4.6" height="18" rx="1.5" fill="white"/>
    <rect x="23.4" y="6" width="4.6" height="23" rx="1.5" fill="white"/>
  </g>
  <text x="102" y="97" fill="#121720" font-family="Arial, sans-serif" font-weight="700" font-size="17">PULSE.DV</text>
  <text x="102" y="113" fill="#9BA1AA" font-family="Arial, sans-serif" font-size="8.6">Новостройки Приморья</text>

  <g>
    <rect x="55" y="132" width="294" height="42" rx="14" fill="white" stroke="#E9ECF0"/>
    <circle cx="73" cy="153" r="5.5" stroke="#A0A6AE" stroke-width="1.6"/>
    <path d="M77 157L81 161" stroke="#A0A6AE" stroke-width="1.6" stroke-linecap="round"/>
    <text x="91" y="158" fill="#A0A6AE" font-family="Arial, sans-serif" font-size="10.2">ЖК, район или застройщик</text>
  </g>

  <g>
    <rect x="55" y="188" width="294" height="217" rx="26" fill="url(#sky)"/>
    <path d="M55 324C112 300 165 295 217 311C277 329 312 319 349 290V405H55V324Z" fill="#233947" fill-opacity=".78"/>
    <path d="M171 333L217 220L264 333M217 220V190M217 226L174 329M217 226L260 329" stroke="#F0F6F9" stroke-opacity=".92" stroke-width="2"/>
    <path d="M55 353C114 338 174 340 226 352C274 364 314 355 349 334" stroke="#C7D9E3" stroke-opacity=".55" stroke-width="2"/>
    <rect x="68" y="202" width="91" height="22" rx="11" fill="#F21D2F" fill-opacity=".94"/>
    <text x="79" y="217" fill="white" font-family="Arial, sans-serif" font-weight="700" font-size="8">НОВОСТРОЙКИ</text>
    <text x="75" y="264" fill="white" font-family="Arial, sans-serif" font-weight="700" font-size="23">Квартира, которую</text>
    <text x="75" y="291" fill="white" font-family="Arial, sans-serif" font-weight="700" font-size="23">хочется показывать</text>
    <text x="75" y="318" fill="white" font-family="Arial, sans-serif" font-weight="700" font-size="23">друзьям</text>
    <text x="75" y="342" fill="#E6EEF3" font-family="Arial, sans-serif" font-size="9.5">Владивосток · Уссурийск · Артём</text>
    <rect x="75" y="367" width="130" height="25" rx="12.5" fill="white" fill-opacity=".95"/>
    <text x="91" y="384" fill="#141922" font-family="Arial, sans-serif" font-weight="700" font-size="8">Смотреть проекты</text>
    <path d="M184 379H194M190 375L194 379L190 383" stroke="#141922" stroke-width="1.3" stroke-linecap="round" stroke-linejoin="round"/>
  </g>

  <!-- action cards -->
  <g font-family="Arial, sans-serif">
    <rect x="55" y="418" width="142" height="58" rx="17" fill="white"/>
    <path d="M74 439H87V454H74V439ZM77 435H84V439M78 443H82M78 447H82M78 451H82" stroke="#676F7A" stroke-width="1.5" stroke-linecap="round" stroke-linejoin="round"/>
    <text x="98" y="450" fill="#303640" font-weight="700" font-size="8.5">Каталог</text>
    <text x="98" y="463" fill="#9CA2AA" font-size="6.7">Все новостройки</text>

    <rect x="207" y="418" width="142" height="58" rx="17" fill="white"/>
    <path d="M226 437C231 437 235 441 235 446C235 452 226 458 226 458C226 458 217 452 217 446C217 441 221 437 226 437Z" stroke="#676F7A" stroke-width="1.5"/>
    <circle cx="226" cy="446" r="2.5" stroke="#676F7A" stroke-width="1.3"/>
    <text x="247" y="450" fill="#303640" font-weight="700" font-size="8.5">На карте</text>
    <text x="247" y="463" fill="#9CA2AA" font-size="6.7">По районам</text>

    <rect x="55" y="486" width="142" height="58" rx="17" fill="white"/>
    <circle cx="80" cy="515" r="10" stroke="#676F7A" stroke-width="1.5"/>
    <path d="M75 520L85 510M76.5 511.5H76.6M83.4 518.5H83.5" stroke="#676F7A" stroke-width="1.6" stroke-linecap="round"/>
    <text x="98" y="518" fill="#303640" font-weight="700" font-size="8.5">Ипотека</text>
    <text x="98" y="531" fill="#9CA2AA" font-size="6.7">Расчёт платежа</text>

    <rect x="207" y="486" width="142" height="58" rx="17" fill="white"/>
    <path d="M226 502L228.5 509L236 511.5L228.5 514L226 521L223.5 514L216 511.5L223.5 509L226 502Z" stroke="#676F7A" stroke-width="1.4" stroke-linejoin="round"/>
    <text x="247" y="518" fill="#303640" font-weight="700" font-size="8.5">PULSE Select</text>
    <text x="247" y="531" fill="#9CA2AA" font-size="6.7">Подбор под вас</text>
  </g>

  <text x="58" y="576" fill="#A5AAB1" font-family="Arial, sans-serif" font-size="7.6" letter-spacing=".7">ВЫБОР PULSE.DV</text>
  <text x="58" y="598" fill="#161B23" font-family="Arial, sans-serif" font-weight="700" font-size="15.5">Стоит посмотреть</text>
  <rect x="55" y="610" width="294" height="33" rx="13" fill="white"/>
  <rect x="64" y="616" width="38" height="21" rx="7" fill="#9BB7C7"/>
  <path d="M64 631C75 625 91 624 102 627V637H64V631Z" fill="#66879A"/>
  <text x="114" y="626" fill="#1C2028" font-family="Arial, sans-serif" font-weight="700" font-size="8">ЖК «Босфор»</text>
  <text x="114" y="638" fill="#7D838C" font-family="Arial, sans-serif" font-size="7">от 7,8 млн ₽</text>
  <path d="M323 621C319 616 311 619 311 625C311 632 323 638 323 638C323 638 335 632 335 625C335 619 327 616 323 621Z" stroke="#F21D2F" stroke-width="1.5" fill="none"/>
</g>

<!-- Right phone -->
<g transform="translate(497 124) rotate(5 150 270)" filter="url(#shadow)">
  <rect x="14" y="7" width="302" height="572" rx="55" fill="url(#phone)"/>
  <rect x="23" y="17" width="284" height="554" rx="46" fill="#F8F9FB"/>
  <rect x="109" y="26" width="112" height="26" rx="13" fill="#080A0D"/>
  <text x="47" y="61" fill="#151922" font-family="Arial, sans-serif" font-weight="700" font-size="13">9:41</text>
  <text x="48" y="102" fill="#9AA0A9" font-family="Arial, sans-serif" font-size="7.5" letter-spacing=".7">КАТАЛОГ PULSE.DV</text>
  <text x="48" y="134" fill="#171B23" font-family="Arial, sans-serif" font-weight="700" font-size="24">Новостройки</text>
  <text x="48" y="153" fill="#838A94" font-family="Arial, sans-serif" font-size="8.7">Подбирайте спокойно — по району и бюджету</text>

  <g>
    <rect x="48" y="171" width="234" height="34" rx="12" fill="#ECEFF3"/>
    <rect x="52" y="175" width="111" height="26" rx="9" fill="white"/>
    <path d="M73 183H84M73 188H84M73 193H84" stroke="#171B23" stroke-width="1.4" stroke-linecap="round"/>
    <circle cx="69" cy="183" r="1.4" fill="#171B23"/><circle cx="69" cy="188" r="1.4" fill="#171B23"/><circle cx="69" cy="193" r="1.4" fill="#171B23"/>
    <text x="92" y="192" fill="#171B23" font-family="Arial, sans-serif" font-weight="700" font-size="8">Список</text>
    <path d="M202 181C207 181 211 185 211 190C211 196 202 201 202 201C202 201 193 196 193 190C193 185 197 181 202 181Z" stroke="#7F858F" stroke-width="1.3"/>
    <circle cx="202" cy="190" r="2.1" stroke="#7F858F" stroke-width="1.1"/>
    <text x="217" y="192" fill="#7F858F" font-family="Arial, sans-serif" font-size="8">Карта</text>
  </g>

  <g>
    <rect x="48" y="218" width="234" height="36" rx="13" fill="white" stroke="#ECEEF2"/>
    <circle cx="65" cy="236" r="5" stroke="#9EA4AD" stroke-width="1.4"/>
    <path d="M69 240L73 244" stroke="#9EA4AD" stroke-width="1.4" stroke-linecap="round"/>
    <text x="82" y="241" fill="#A1A6AF" font-family="Arial, sans-serif" font-size="8.8">ЖК, район, застройщик</text>
    <path d="M260 228V244M256 232H264M256 240H264" stroke="#858B94" stroke-width="1.3" stroke-linecap="round"/>
  </g>

  <g font-family="Arial, sans-serif">
    <rect x="48" y="267" width="234" height="30" rx="15" fill="transparent"/>
    <rect x="48" y="270" width="33" height="24" rx="12" fill="#171B23"/>
    <text x="59" y="286" fill="white" font-size="7.5">Все</text>
    <rect x="86" y="270" width="73" height="24" rx="12" fill="white"/>
    <text x="98" y="286" fill="#737A84" font-size="7">Владивосток</text>
    <rect x="164" y="270" width="63" height="24" rx="12" fill="white"/>
    <text x="176" y="286" fill="#737A84" font-size="7">Уссурийск</text>
  </g>

  <g>
    <rect x="48" y="311" width="234" height="108" rx="20" fill="white"/>
    <rect x="58" y="321" width="80" height="88" rx="14" fill="url(#sea)"/>
    <path d="M61 377C83 363 110 362 138 369V409H58V382C59 381 60 379 61 377Z" fill="#6D91A7"/>
    <path d="M90 373L104 336L119 373M104 336V323M104 338L91 370M104 338L118 370" stroke="#F1F7FA" stroke-width="1.4"/>
    <text x="151" y="331" fill="#F21D2F" font-family="Arial, sans-serif" font-weight="700" font-size="6.8">ВИД НА МОРЕ</text>
    <text x="151" y="353" fill="#171B23" font-family="Arial, sans-serif" font-weight="700" font-size="11.5">ЖК Солнечный</text>
    <text x="151" y="369" fill="#8A9099" font-family="Arial, sans-serif" font-size="7.7">Владивосток · Патрокл</text>
    <text x="151" y="394" fill="#171B23" font-family="Arial, sans-serif" font-weight="700" font-size="11.5">от 6,2 млн ₽</text>
    <path d="M258 334C254 329 247 331 247 337C247 343 258 349 258 349C258 349 269 343 269 337C269 331 262 329 258 334Z" stroke="#79808A" stroke-width="1.3" fill="none"/>
  </g>

  <g>
    <rect x="48" y="432" width="234" height="108" rx="20" fill="white"/>
    <rect x="58" y="442" width="80" height="88" rx="14" fill="url(#building)"/>
    <rect x="68" y="463" width="17" height="53" rx="3" fill="#F2EAE4"/>
    <rect x="91" y="452" width="21" height="64" rx="3" fill="#9E806C"/>
    <rect x="118" y="470" width="12" height="46" rx="3" fill="#D8C6B9"/>
    <text x="151" y="452" fill="#F21D2F" font-family="Arial, sans-serif" font-weight="700" font-size="6.8">СТАРТ ПРОДАЖ</text>
    <text x="151" y="474" fill="#171B23" font-family="Arial, sans-serif" font-weight="700" font-size="11.5">ЖК Приморский</text>
    <text x="151" y="490" fill="#8A9099" font-family="Arial, sans-serif" font-size="7.7">Владивосток · Центр</text>
    <text x="151" y="515" fill="#171B23" font-family="Arial, sans-serif" font-weight="700" font-size="11.5">от 7,8 млн ₽</text>
    <path d="M258 455C254 450 247 452 247 458C247 464 258 470 258 470C258 470 269 464 269 458C269 452 262 450 258 455Z" stroke="#79808A" stroke-width="1.3" fill="none"/>
  </g>
</g>

<!-- Floating map card -->
<g filter="url(#cardShadow)">
  <rect x="76" y="520" width="185" height="132" rx="24" fill="url(#glass)"/>
  <g transform="translate(92 537)">
    <rect width="24" height="24" rx="8" fill="#F21D2F"/>
    <rect x="6" y="11" width="3" height="8" rx="1" fill="white"/>
    <rect x="11" y="7" width="3" height="12" rx="1" fill="white"/>
    <rect x="16" y="4" width="3" height="15" rx="1" fill="white"/>
  </g>
  <text x="124" y="548" fill="#171B23" font-family="Arial, sans-serif" font-weight="700" font-size="10.5">12 новостроек</text>
  <text x="124" y="562" fill="#969CA5" font-family="Arial, sans-serif" font-size="7.8">на карте</text>
  <rect x="92" y="578" width="150" height="56" rx="14" fill="#DDEAF0"/>
  <path d="M92 616L142 590L186 607L242 585" stroke="white" stroke-width="4" opacity=".84"/>
  <path d="M95 592L137 620L175 586L216 616L240 603" stroke="#B7CAD6" stroke-width="2" opacity=".8"/>
  <g><circle cx="148" cy="603" r="9" fill="#F21D2F" stroke="white" stroke-width="4"/><circle cx="204" cy="594" r="9" fill="#F21D2F" stroke="white" stroke-width="4"/></g>
</g>

<!-- Floating apartment card -->
<g filter="url(#cardShadow)" transform="rotate(3 766 543)">
  <rect x="681" y="468" width="170" height="154" rx="24" fill="url(#glass)"/>
  <rect x="694" y="481" width="144" height="88" rx="16" fill="#ECE4DE"/>
  <rect x="707" y="494" width="52" height="62" rx="9" fill="#D7C6B9"/>
  <rect x="768" y="494" width="57" height="29" rx="9" fill="#F6F1ED"/>
  <rect x="768" y="530" width="57" height="26" rx="9" fill="#CDB9AA"/>
  <text x="695" y="594" fill="#171B23" font-family="Arial, sans-serif" font-weight="700" font-size="9.6">2-комнатная, 58 м²</text>
  <text x="695" y="610" fill="#171B23" font-family="Arial, sans-serif" font-weight="700" font-size="11">12,4 млн ₽</text>
  <path d="M823 588C820 584 814 586 814 591C814 596 823 601 823 601C823 601 832 596 832 591C832 586 826 584 823 588Z" stroke="#F21D2F" stroke-width="1.4" fill="none"/>
</g>
</svg>